<svg width="45" height="45" viewBox="0 0 45 45" fill="none" xmlns="http://www.w3.org/2000/svg">
<rect width="44.16" height="44.16" rx="22.08" fill="#EAEEFF"/>
<path d="M14.5064 23.4267C15.7864 23.4533 16.9731 24.0933 17.7731 25.2133C18.7464 26.5867 20.3598 27.4133 22.0798 27.4133C23.7998 27.4133 25.4131 26.5867 26.3864 25.2C27.1864 24.08 28.3731 23.44 29.6531 23.4133C28.6931 21.7867 24.8531 20.7467 22.0798 20.7467C19.3198 20.7467 15.4664 21.7867 14.5064 23.4267Z" fill="#11236A"/>
<path d="M11.4131 23.4133C13.6264 23.4133 15.4131 21.6267 15.4131 19.4133C15.4131 17.2 13.6264 15.4133 11.4131 15.4133C9.19975 15.4133 7.41309 17.2 7.41309 19.4133C7.41309 21.6267 9.19975 23.4133 11.4131 23.4133Z" fill="#11236A"/>
<path d="M32.7464 23.4133C34.9598 23.4133 36.7464 21.6267 36.7464 19.4133C36.7464 17.2 34.9598 15.4133 32.7464 15.4133C30.5331 15.4133 28.7464 17.2 28.7464 19.4133C28.7464 21.6267 30.5331 23.4133 32.7464 23.4133Z" fill="#11236A"/>
<path d="M22.0798 19.4133C24.2931 19.4133 26.0798 17.6267 26.0798 15.4133C26.0798 13.2 24.2931 11.4133 22.0798 11.4133C19.8664 11.4133 18.0798 13.2 18.0798 15.4133C18.0798 17.6267 19.8664 19.4133 22.0798 19.4133Z" fill="#11236A"/>
<path d="M34.0798 24.7467H29.7198C28.6931 24.7467 27.9198 25.3467 27.4797 25.9733C27.4264 26.0533 25.6664 28.7467 22.0798 28.7467C20.1731 28.7467 18.0398 27.8933 16.6798 25.9733C16.1598 25.24 15.3464 24.7467 14.4398 24.7467H10.0798C8.61309 24.7467 7.41309 25.9467 7.41309 27.4133V32.7467H16.7464V29.7333C18.2798 30.8 20.1331 31.4133 22.0798 31.4133C24.0264 31.4133 25.8798 30.8 27.4131 29.7333V32.7467H36.7464V27.4133C36.7464 25.9467 35.5464 24.7467 34.0798 24.7467Z" fill="#11236A"/>
</svg>
