<svg width="25" height="24" viewBox="0 0 25 24" fill="none" xmlns="http://www.w3.org/2000/svg">
<path fill-rule="evenodd" clip-rule="evenodd" d="M5.58289 4C4.93002 4 4.40039 4.5135 4.40039 5.14612V18.8542C4.40039 19.4869 4.93008 20 5.58289 20H19.2179C19.871 20 20.4004 19.4869 20.4004 18.8541V5.14612C20.4004 4.5135 19.871 4 19.2179 4H5.58289ZM9.26251 10.1867V17.3899H6.86826V10.1867H9.26251ZM9.42032 7.95899C9.42032 8.65024 8.90063 9.20337 8.06588 9.20337L8.05019 9.20331C7.24663 9.20331 6.72713 8.65018 6.72713 7.95893C6.72713 7.25199 7.26232 6.71431 8.08176 6.71431C8.90063 6.71431 9.40469 7.25199 9.42032 7.95899ZM12.9818 17.3899H10.5878C10.5878 17.3899 10.6191 10.8627 10.5879 10.1869H12.982V11.2065C13.3003 10.7158 13.8699 10.0178 15.1398 10.0178C16.715 10.0178 17.896 11.0474 17.896 13.2598V17.3899H15.502V13.5368C15.502 12.5684 15.1553 11.9079 14.2892 11.9079C13.6276 11.9079 13.2337 12.3533 13.0607 12.7836C12.9974 12.9372 12.9818 13.1527 12.9818 13.3677V17.3899Z" fill="#1D1D1B"/>
</svg>
