<svg width="15" height="12" viewBox="0 0 15 12" fill="none" xmlns="http://www.w3.org/2000/svg">
<path d="M9.24185 10.9483C9.1316 10.838 9.07744 10.7181 9.07935 10.5886C9.08129 10.4592 9.13738 10.3393 9.24763 10.229L12.9765 6.50019H0.595703C0.454036 6.50019 0.335286 6.45221 0.239453 6.35624C0.14362 6.26028 0.0957031 6.14137 0.0957031 5.99952C0.0957031 5.85765 0.14362 5.73897 0.239453 5.64347C0.335286 5.54795 0.454036 5.50019 0.595703 5.50019H12.9765L9.22263 1.74634C9.12519 1.65233 9.07648 1.54069 9.07648 1.41142C9.07648 1.28214 9.1316 1.16237 9.24185 1.05212C9.35212 0.941852 9.47104 0.886719 9.5986 0.886719C9.72615 0.886719 9.84506 0.941852 9.95533 1.05212L14.338 5.43482C14.4252 5.52199 14.4864 5.61194 14.5217 5.70467C14.5569 5.79742 14.5746 5.89679 14.5746 6.00277C14.5746 6.10875 14.5569 6.20725 14.5217 6.29827C14.4864 6.3893 14.4252 6.4784 14.338 6.56557L9.93033 10.9733C9.84315 11.0669 9.73417 11.1137 9.6034 11.1137C9.47264 11.1137 9.35212 11.0585 9.24185 10.9483Z" fill="#EAEEFF"/>
</svg>
