<svg width="16" height="16" viewBox="0 0 16 16" fill="none" xmlns="http://www.w3.org/2000/svg">
<path d="M4 12.5H9C9.14232 12.5 9.26122 12.4522 9.35672 12.3567C9.45224 12.2612 9.5 12.1423 9.5 12C9.5 11.8577 9.45224 11.7388 9.35672 11.6433C9.26122 11.5478 9.14232 11.5 9 11.5H4C3.85768 11.5 3.73877 11.5478 3.64327 11.6433C3.54776 11.7388 3.5 11.8577 3.5 12C3.5 12.1423 3.54776 12.2612 3.64327 12.3567C3.73877 12.4522 3.85768 12.5 4 12.5ZM4 8.5H12C12.1423 8.5 12.2612 8.45224 12.3567 8.35672C12.4522 8.26122 12.5 8.14232 12.5 8C12.5 7.85768 12.4522 7.73878 12.3567 7.64328C12.2612 7.54776 12.1423 7.5 12 7.5H4C3.85768 7.5 3.73877 7.54776 3.64327 7.64328C3.54776 7.73878 3.5 7.85768 3.5 8C3.5 8.14232 3.54776 8.26122 3.64327 8.35672C3.73877 8.45224 3.85768 8.5 4 8.5ZM4 4.5H12C12.1423 4.5 12.2612 4.45224 12.3567 4.35673C12.4522 4.26123 12.5 4.14232 12.5 4C12.5 3.85768 12.4522 3.73877 12.3567 3.64327C12.2612 3.54776 12.1423 3.5 12 3.5H4C3.85768 3.5 3.73877 3.54776 3.64327 3.64327C3.54776 3.73877 3.5 3.85768 3.5 4C3.5 4.14232 3.54776 4.26123 3.64327 4.35673C3.73877 4.45224 3.85768 4.5 4 4.5ZM1.61538 16C1.15513 16 0.770833 15.8458 0.4625 15.5375C0.154167 15.2292 0 14.8449 0 14.3846V1.61537C0 1.15512 0.154167 0.770833 0.4625 0.4625C0.770833 0.154167 1.15513 0 1.61538 0H14.3846C14.8449 0 15.2292 0.154167 15.5375 0.4625C15.8458 0.770833 16 1.15512 16 1.61537V14.3846C16 14.8449 15.8458 15.2292 15.5375 15.5375C15.2292 15.8458 14.8449 16 14.3846 16H1.61538ZM1.61538 15H14.3846C14.5385 15 14.6795 14.9359 14.8077 14.8077C14.9359 14.6795 15 14.5385 15 14.3846V1.61537C15 1.46154 14.9359 1.32052 14.8077 1.1923C14.6795 1.0641 14.5385 1 14.3846 1H1.61538C1.46154 1 1.32052 1.0641 1.1923 1.1923C1.0641 1.32052 1 1.46154 1 1.61537V14.3846C1 14.5385 1.0641 14.6795 1.1923 14.8077C1.32052 14.9359 1.46154 15 1.61538 15Z" fill="white"/>
</svg>
