<svg width="20" height="17" viewBox="0 0 20 17" fill="none" xmlns="http://www.w3.org/2000/svg">
<path d="M9.96155 16.4535C9.84232 16.4535 9.72084 16.4381 9.59713 16.4073C9.47339 16.3766 9.36217 16.3323 9.26345 16.2746C8.52883 15.8451 7.76409 15.5253 6.96923 15.315C6.17436 15.1048 5.35128 14.9996 4.5 14.9996C3.97948 14.9996 3.46827 15.0432 2.96635 15.1304C2.46442 15.2176 1.97563 15.3573 1.5 15.5496C1.13718 15.6945 0.796475 15.6541 0.477875 15.4285C0.159292 15.2028 0 14.8919 0 14.4958V4.86885C0 4.62141 0.0682667 4.39834 0.2048 4.19962C0.341333 4.0009 0.5205 3.85988 0.7423 3.77655C1.32948 3.51756 1.94038 3.32333 2.575 3.19385C3.20962 3.06436 3.85128 2.99962 4.5 2.99962C5.47948 2.99962 6.42853 3.15026 7.34713 3.45155C8.26571 3.75283 9.15 4.15347 10 4.65347V15.5227C10.8372 14.9894 11.7256 14.6022 12.6654 14.3612C13.6051 14.1201 14.55 13.9996 15.5 13.9996C16.0487 13.9996 16.5465 14.0304 16.9933 14.0919C17.4401 14.1535 17.9167 14.2586 18.4231 14.4073C18.5641 14.4458 18.6955 14.449 18.8173 14.4169C18.9391 14.3849 19 14.2791 19 14.0996V3.63807C19.0961 3.6573 19.1881 3.68391 19.276 3.71789C19.3638 3.75186 19.4474 3.79705 19.5269 3.85347C19.6846 3.9368 19.8029 4.05539 19.8817 4.20922C19.9606 4.36307 20 4.53166 20 4.71499V14.4573C20 14.8535 19.8311 15.1612 19.4933 15.3804C19.1555 15.5996 18.7859 15.6432 18.3846 15.5112C17.9218 15.3317 17.4491 15.2016 16.9664 15.1208C16.4837 15.04 15.9949 14.9996 15.5 14.9996C14.6359 14.9996 13.7936 15.1048 12.9731 15.315C12.1526 15.5253 11.375 15.8451 10.6404 16.2746C10.5417 16.3323 10.4337 16.3766 10.3163 16.4073C10.199 16.4381 10.0808 16.4535 9.96155 16.4535ZM12.7096 12.365C12.5686 12.4894 12.4151 12.5153 12.249 12.4429C12.083 12.3705 12 12.2387 12 12.0477V4.68039C12 4.65988 12.0436 4.55603 12.1308 4.36885L16.2846 0.214995C16.4256 0.0739786 16.5801 0.0419283 16.7481 0.118845C16.916 0.195762 17 0.331662 17 0.526545V8.31307C17 8.36692 16.9545 8.4727 16.8635 8.6304L12.7096 12.365ZM9 15.0477V5.24385C8.29615 4.85666 7.56827 4.5525 6.81635 4.33135C6.06442 4.1102 5.2923 3.99962 4.5 3.99962C3.88333 3.99962 3.31218 4.05474 2.78655 4.16499C2.2609 4.27526 1.78718 4.41501 1.36538 4.58425C1.26281 4.62269 1.17628 4.67718 1.10578 4.7477C1.03526 4.81821 1 4.90475 1 5.00732V14.1438C1 14.3233 1.0609 14.4291 1.1827 14.4612C1.30448 14.4932 1.43589 14.4836 1.57692 14.4323C1.98077 14.2926 2.41892 14.1855 2.89135 14.1112C3.36378 14.0368 3.9 13.9996 4.5 13.9996C5.39487 13.9996 6.23557 14.1041 7.0221 14.3131C7.80865 14.5221 8.46795 14.7669 9 15.0477Z" fill="#254CE5"/>
</svg>
