<svg width="14" height="16" viewBox="0 0 14 16" fill="none" xmlns="http://www.w3.org/2000/svg">
<path d="M1.13077 15.0154C0.861541 15.1359 0.605767 15.1167 0.36345 14.9578C0.12115 14.7989 0 14.5675 0 14.2635V1.61537C0 1.15512 0.154167 0.770833 0.4625 0.4625C0.770833 0.154167 1.15512 0 1.61537 0H7V1H1.61537C1.46154 1 1.32052 1.0641 1.1923 1.1923C1.0641 1.32052 1 1.46154 1 1.61537V13.95L6 11.8L11 13.95V7H12V14.2635C12 14.5675 11.8788 14.7989 11.6365 14.9578C11.3942 15.1167 11.1385 15.1359 10.8692 15.0154L6 12.9231L1.13077 15.0154ZM11.4993 5C11.3575 5 11.2388 4.95208 11.1433 4.85625C11.0478 4.76042 11 4.64167 11 4.5V3H9.5C9.35833 3 9.23958 2.95202 9.14375 2.85605C9.04792 2.76008 9 2.64117 9 2.49932C9 2.35746 9.04792 2.23877 9.14375 2.14327C9.23958 2.04776 9.35833 2 9.5 2H11V0.5C11 0.358333 11.048 0.239583 11.144 0.14375C11.2399 0.0479167 11.3588 0 11.5007 0C11.6425 0 11.7612 0.0479167 11.8567 0.14375C11.9522 0.239583 12 0.358333 12 0.5V2H13.5C13.6417 2 13.7604 2.04798 13.8562 2.14395C13.9521 2.2399 14 2.35881 14 2.50068C14 2.64253 13.9521 2.76121 13.8562 2.85673C13.7604 2.95224 13.6417 3 13.5 3H12V4.5C12 4.64167 11.952 4.76042 11.8561 4.85625C11.7601 4.95208 11.6412 5 11.4993 5Z" fill="#4A4A49"/>
</svg>
