<svg width="24" height="24" viewBox="0 0 24 24" fill="none" xmlns="http://www.w3.org/2000/svg">
<path d="M21.3333 0H2.66667C1.2 0 0 1.2 0 2.66667V21.3333C0 22.8 1.2 24 2.66667 24H21.3333C22.8 24 24 22.8 24 21.3333V2.66667C24 1.2 22.8 0 21.3333 0ZM18.6667 21.3333H5.33333V21.0133C7.22667 19.4933 9.54667 18.6667 12 18.6667C14.4533 18.6667 16.7733 19.4933 18.6667 21.0133V21.3333ZM21.3333 19.8133C18.9333 17.4533 15.64 16 12 16C8.36 16 5.06667 17.4533 2.66667 19.8133V2.66667H21.3333V19.8133ZM12 13.3333C14.5733 13.3333 16.6667 11.24 16.6667 8.66667C16.6667 6.09333 14.5733 4 12 4C9.42667 4 7.33333 6.09333 7.33333 8.66667C7.33333 11.24 9.42667 13.3333 12 13.3333ZM12 6.66667C13.1067 6.66667 14 7.56 14 8.66667C14 9.77333 13.1067 10.6667 12 10.6667C10.8933 10.6667 10 9.77333 10 8.66667C10 7.56 10.8933 6.66667 12 6.66667Z" fill="#BDCAFE"/>
</svg>
