<svg width="22" height="16" viewBox="0 0 22 16" fill="none" xmlns="http://www.w3.org/2000/svg">
<path d="M0.509766 15.6923V11.9423C0.509766 11.459 0.673549 11.0497 1.00112 10.7144C1.32867 10.3792 1.72577 10.2052 2.19244 10.1923H5.27512C5.5764 10.1923 5.86262 10.2661 6.13377 10.4135C6.40492 10.5609 6.62575 10.7667 6.79627 11.0308C7.29242 11.7128 7.90748 12.2436 8.64147 12.6231C9.37543 13.0026 10.1616 13.1923 11.0001 13.1923C11.8488 13.1923 12.6418 13.0026 13.379 12.6231C14.1161 12.2436 14.7277 11.7128 15.2136 11.0308C15.4046 10.7667 15.6331 10.5609 15.8992 10.4135C16.1652 10.2661 16.4405 10.1923 16.7251 10.1923H19.8078C20.2847 10.2052 20.686 10.3792 21.0116 10.7144C21.3373 11.0497 21.5001 11.459 21.5001 11.9423V15.6923H15.0001V13.3404C14.4296 13.7763 13.8052 14.1106 13.127 14.3433C12.4488 14.5759 11.7399 14.6923 11.0001 14.6923C10.277 14.6923 9.57543 14.575 8.89532 14.3404C8.21518 14.1057 7.58666 13.7705 7.00974 13.3346V15.6923H0.509766ZM11.0001 11.8077C10.3988 11.8077 9.82928 11.6683 9.29147 11.3894C8.75365 11.1106 8.30269 10.7256 7.93859 10.2346C7.68091 9.86283 7.36681 9.55931 6.99629 9.32404C6.62577 9.08879 6.22257 8.94552 5.78669 8.89424C6.21106 8.37374 6.9524 7.96958 8.01072 7.68177C9.06905 7.39395 10.0655 7.25004 11.0001 7.25004C11.9347 7.25004 12.9312 7.39395 13.9895 7.68177C15.0478 7.96958 15.7924 8.37374 16.2232 8.89424C15.7975 8.94552 15.3969 9.08879 15.0212 9.32404C14.6456 9.55931 14.3289 9.86283 14.0713 10.2346C13.7238 10.7423 13.2796 11.1314 12.7386 11.4019C12.1975 11.6724 11.6181 11.8077 11.0001 11.8077ZM3.28859 8.80769C2.53219 8.80769 1.88477 8.53846 1.34632 8.00001C0.807849 7.46155 0.538616 6.81412 0.538616 6.05771C0.538616 5.28465 0.807841 4.63305 1.34629 4.10291C1.88476 3.5728 2.53219 3.30774 3.28859 3.30774C4.06167 3.30774 4.71327 3.5728 5.24339 4.10291C5.77352 4.63305 6.03859 5.28465 6.03859 6.05771C6.03859 6.81412 5.77352 7.46155 5.24339 8.00001C4.71327 8.53846 4.06167 8.80769 3.28859 8.80769ZM18.7116 8.80769C17.9552 8.80769 17.3078 8.53846 16.7693 8.00001C16.2309 7.46155 15.9616 6.81412 15.9616 6.05771C15.9616 5.28465 16.2309 4.63305 16.7693 4.10291C17.3078 3.5728 17.9552 3.30774 18.7116 3.30774C19.4847 3.30774 20.1363 3.5728 20.6664 4.10291C21.1966 4.63305 21.4616 5.28465 21.4616 6.05771C21.4616 6.81412 21.1966 7.46155 20.6664 8.00001C20.1363 8.53846 19.4847 8.80769 18.7116 8.80769ZM11.0001 5.80769C10.2437 5.80769 9.59628 5.53846 9.05782 5.00001C8.51937 4.46155 8.25014 3.81412 8.25014 3.05771C8.25014 2.28465 8.51937 1.63305 9.05782 1.10291C9.59628 0.572798 10.2437 0.307739 11.0001 0.307739C11.7732 0.307739 12.4248 0.572798 12.9549 1.10291C13.485 1.63305 13.7501 2.28465 13.7501 3.05771C13.7501 3.81412 13.485 4.46155 12.9549 5.00001C12.4248 5.53846 11.7732 5.80769 11.0001 5.80769Z" fill="#2954FC"/>
</svg>
