<svg width="20" height="10" viewBox="0 0 20 10" fill="none" xmlns="http://www.w3.org/2000/svg">
<path d="M5.44662 8.03884C5.97611 8.03884 6.45784 7.88243 6.89182 7.56961C7.32579 7.2568 7.63251 6.84591 7.812 6.33694L8.12932 5.32154C8.40881 4.48307 8.33252 3.71352 7.90047 3.01289C7.46842 2.31226 6.85816 1.96194 6.0697 1.96194H2.50625L2.98125 5.86769C3.06458 6.48949 3.3399 7.0068 3.8072 7.41961C4.27451 7.83243 4.82099 8.03884 5.44662 8.03884ZM14.5543 8.03884C15.18 8.03884 15.7264 7.83243 16.1937 7.41961C16.661 7.0068 16.9364 6.48949 17.0197 5.86769L17.4947 1.96194H13.9562C13.1678 1.96194 12.5543 2.31321 12.1159 3.01576C11.6774 3.71833 11.5979 4.48885 11.8774 5.32731L12.1889 6.33694C12.3684 6.84591 12.6752 7.2568 13.1091 7.56961C13.5431 7.88243 14.0248 8.03884 14.5543 8.03884ZM5.44662 9.03886C4.57739 9.03886 3.81361 8.75008 3.15527 8.17251C2.49694 7.59495 2.11392 6.86514 2.00622 5.98309L1.50047 1.96194H1.15432C1.01201 1.96194 0.893089 1.91418 0.797572 1.81866C0.702055 1.72315 0.654297 1.60423 0.654297 1.46191C0.654297 1.31961 0.702055 1.20071 0.797572 1.10519C0.893089 1.00967 1.01201 0.961914 1.15432 0.961914H6.0697C6.64918 0.961914 7.18861 1.11865 7.68797 1.43211C8.18734 1.74558 8.59279 2.1786 8.90432 2.73116H11.1216C11.4332 2.1786 11.8386 1.74558 12.338 1.43211C12.8373 1.11865 13.3768 0.961914 13.9562 0.961914H18.8466C18.9889 0.961914 19.1079 1.00967 19.2034 1.10519C19.2989 1.20071 19.3466 1.31961 19.3466 1.46191C19.3466 1.60423 19.2989 1.72315 19.2034 1.81866C19.1079 1.91418 18.9889 1.96194 18.8466 1.96194H18.5005L17.9947 5.98309C17.887 6.86514 17.504 7.59495 16.8457 8.17251C16.1873 8.75008 15.4236 9.03886 14.5543 9.03886C13.7966 9.03886 13.1187 8.82252 12.5207 8.38981C11.9226 7.95713 11.4992 7.38694 11.2505 6.67924L10.9332 5.66961C10.887 5.5145 10.8473 5.352 10.8139 5.18211C10.7806 5.01225 10.7473 4.75936 10.7139 4.42346H9.28702C9.25369 4.72603 9.22036 4.96546 9.18702 5.14174C9.15369 5.31802 9.11394 5.48373 9.06777 5.63886L8.75047 6.65424C8.51457 7.36194 8.09438 7.9363 7.4899 8.37732C6.88541 8.81835 6.20432 9.03886 5.44662 9.03886Z" fill="#254CE5"/>
</svg>
