<svg width="25" height="24" viewBox="0 0 25 24" fill="none" xmlns="http://www.w3.org/2000/svg">
<mask id="mask0_3101_5226" style="mask-type:alpha" maskUnits="userSpaceOnUse" x="0" y="0" width="25" height="24">
<rect x="0.5" width="24" height="24" fill="#D9D9D9"/>
</mask>
<g mask="url(#mask0_3101_5226)">
<path d="M18.2511 21.5C17.4875 21.5 16.8381 21.2326 16.3029 20.6979C15.7676 20.1632 15.5 19.5139 15.5 18.75C15.5 18.6251 15.5099 18.4959 15.5298 18.3621C15.5497 18.2284 15.5795 18.1051 15.6192 17.9923L8.22305 13.6615C7.95895 13.9243 7.65831 14.1298 7.32113 14.2779C6.98394 14.4259 6.62689 14.5 6.24997 14.5C5.48609 14.5 4.83679 14.2327 4.30207 13.6982C3.76736 13.1637 3.5 12.5147 3.5 11.7511C3.5 10.9875 3.76736 10.3381 4.30207 9.80288C4.83679 9.26763 5.48609 9 6.24997 9C6.62689 9 6.98394 9.07403 7.32113 9.2221C7.65831 9.37018 7.95895 9.57563 8.22305 9.83845L15.6192 5.50768C15.5795 5.39486 15.5497 5.27158 15.5298 5.13783C15.5099 5.00409 15.5 4.87481 15.5 4.74997C15.5 3.98609 15.7673 3.33679 16.3018 2.80207C16.8363 2.26736 17.4853 2 18.2489 2C19.0124 2 19.6618 2.26725 20.1971 2.80175C20.7323 3.33625 21 3.98528 21 4.74885C21 5.51242 20.7326 6.16183 20.1979 6.69708C19.6632 7.23233 19.0139 7.49995 18.25 7.49995C17.8731 7.49995 17.516 7.42592 17.1788 7.27785C16.8416 7.12977 16.541 6.92432 16.2769 6.6615L8.88073 10.9923C8.92048 11.1051 8.95028 11.2282 8.97015 11.3615C8.99002 11.4947 8.99995 11.6236 8.99995 11.748C8.99995 11.8724 8.99002 12.0019 8.97015 12.1365C8.95028 12.2711 8.92048 12.3949 8.88073 12.5077L16.2769 16.8385C16.541 16.5756 16.8416 16.3702 17.1788 16.2221C17.516 16.074 17.8731 16 18.25 16C19.0139 16 19.6632 16.2673 20.1979 16.8018C20.7326 17.3363 21 17.9853 21 18.7489C21 19.5124 20.7327 20.1618 20.1982 20.6971C19.6637 21.2323 19.0147 21.5 18.2511 21.5ZM18.25 6C18.5974 6 18.8926 5.87853 19.1356 5.63558C19.3785 5.39261 19.5 5.09741 19.5 4.74997C19.5 4.40254 19.3785 4.10734 19.1356 3.86437C18.8926 3.62142 18.5974 3.49995 18.25 3.49995C17.9025 3.49995 17.6073 3.62142 17.3644 3.86437C17.1214 4.10734 17 4.40254 17 4.74997C17 5.09741 17.1214 5.39261 17.3644 5.63558C17.6073 5.87853 17.9025 6 18.25 6ZM6.24997 13C6.59741 13 6.89261 12.8785 7.13558 12.6356C7.37853 12.3926 7.5 12.0974 7.5 11.75C7.5 11.4025 7.37853 11.1073 7.13558 10.8644C6.89261 10.6214 6.59741 10.5 6.24997 10.5C5.90254 10.5 5.60734 10.6214 5.36438 10.8644C5.12143 11.1073 4.99995 11.4025 4.99995 11.75C4.99995 12.0974 5.12143 12.3926 5.36438 12.6356C5.60734 12.8785 5.90254 13 6.24997 13ZM18.25 20C18.5974 20 18.8926 19.8785 19.1356 19.6356C19.3785 19.3926 19.5 19.0974 19.5 18.75C19.5 18.4025 19.3785 18.1073 19.1356 17.8644C18.8926 17.6214 18.5974 17.5 18.25 17.5C17.9025 17.5 17.6073 17.6214 17.3644 17.8644C17.1214 18.1073 17 18.4025 17 18.75C17 19.0974 17.1214 19.3926 17.3644 19.6356C17.6073 19.8785 17.9025 20 18.25 20Z" fill="#4A4A49"/>
</g>
</svg>
