<svg width="25" height="24" viewBox="0 0 25 24" fill="none" xmlns="http://www.w3.org/2000/svg">
<path d="M9.93706 12C9.93706 10.5273 11.1313 9.33312 12.6049 9.33312C14.0785 9.33312 15.2734 10.5273 15.2734 12C15.2734 13.4727 14.0785 14.6669 12.6049 14.6669C11.1313 14.6669 9.93706 13.4727 9.93706 12ZM8.49453 12C8.49453 14.2688 10.3347 16.1079 12.6049 16.1079C14.8751 16.1079 16.7153 14.2688 16.7153 12C16.7153 9.7312 14.8751 7.8921 12.6049 7.8921C10.3347 7.8921 8.49453 9.7312 8.49453 12ZM15.9174 7.72922C15.9173 7.91909 15.9736 8.10471 16.0791 8.26263C16.1846 8.42054 16.3345 8.54365 16.51 8.61638C16.6855 8.68911 16.8787 8.7082 17.065 8.67123C17.2514 8.63426 17.4226 8.5429 17.5569 8.40869C17.6913 8.27449 17.7829 8.10347 17.82 7.91726C17.8572 7.73106 17.8382 7.53802 17.7656 7.36258C17.693 7.18713 17.5699 7.03715 17.412 6.9316C17.2541 6.82605 17.0684 6.76968 16.8784 6.7696H16.878C16.6233 6.76972 16.3791 6.87085 16.199 7.05077C16.0189 7.2307 15.9176 7.47471 15.9174 7.72922ZM9.37096 18.5118C8.59052 18.4763 8.16633 18.3464 7.88444 18.2366C7.51071 18.0912 7.24405 17.918 6.96369 17.6382C6.68333 17.3584 6.50979 17.0922 6.36493 16.7187C6.25504 16.4371 6.12504 16.013 6.08957 15.233C6.05076 14.3898 6.04301 14.1364 6.04301 12.0001C6.04301 9.86368 6.0514 9.61107 6.08957 8.7671C6.12511 7.98714 6.25607 7.5639 6.36493 7.28147C6.51043 6.90797 6.68372 6.64147 6.96369 6.36128C7.24367 6.08109 7.51007 5.90765 7.88444 5.76288C8.1662 5.65306 8.59052 5.52314 9.37096 5.48768C10.2147 5.4489 10.4682 5.44115 12.6049 5.44115C14.7416 5.44115 14.9953 5.44954 15.8398 5.48768C16.6202 5.5232 17.0437 5.65408 17.3263 5.76288C17.7001 5.90765 17.9667 6.08147 18.2471 6.36128C18.5274 6.64109 18.7003 6.90797 18.8458 7.28147C18.9557 7.56307 19.0857 7.98714 19.1212 8.7671C19.16 9.61107 19.1677 9.86368 19.1677 12.0001C19.1677 14.1364 19.16 14.3891 19.1212 15.233C19.0856 16.013 18.955 16.4369 18.8458 16.7187C18.7003 17.0922 18.527 17.3587 18.2471 17.6382C17.9671 17.9178 17.7001 18.0912 17.3263 18.2366C17.0446 18.3464 16.6202 18.4764 15.8398 18.5118C14.996 18.5506 14.7426 18.5583 12.6049 18.5583C10.4672 18.5583 10.2145 18.5506 9.37096 18.5118ZM9.30468 4.04845C8.45252 4.08723 7.87022 4.22227 7.36169 4.42003C6.83504 4.62426 6.3892 4.89824 5.94369 5.34278C5.49817 5.78733 5.22473 6.2336 5.02038 6.75994C4.8225 7.26848 4.68738 7.85011 4.64857 8.70176C4.60913 9.55475 4.6001 9.82746 4.6001 12C4.6001 14.1725 4.60913 14.4452 4.64857 15.2982C4.68738 16.15 4.8225 16.7315 5.02038 17.2401C5.22473 17.7661 5.49824 18.2129 5.94369 18.6572C6.38914 19.1016 6.83504 19.3752 7.36169 19.58C7.87118 19.7777 8.45252 19.9128 9.30468 19.9516C10.1586 19.9903 10.4311 20 12.6049 20C14.7787 20 15.0516 19.991 15.9051 19.9516C16.7573 19.9128 17.3393 19.7777 17.8481 19.58C18.3744 19.3752 18.8206 19.1018 19.2661 18.6572C19.7116 18.2127 19.9845 17.7661 20.1894 17.2401C20.3873 16.7315 20.5231 16.1499 20.5612 15.2982C20.6 14.4446 20.6091 14.1725 20.6091 12C20.6091 9.82746 20.6 9.55475 20.5612 8.70176C20.5224 7.85005 20.3873 7.26816 20.1894 6.75994C19.9845 6.23392 19.7109 5.78803 19.2661 5.34278C18.8213 4.89754 18.3744 4.62426 17.8487 4.42003C17.3393 4.22227 16.7573 4.08659 15.9058 4.04845C15.0523 4.00966 14.7794 4 12.6055 4C10.4317 4 10.1586 4.00902 9.30468 4.04845Z" fill="#1D1D1B"/>
</svg>
