<svg width="18" height="20" viewBox="0 0 18 20" fill="none" xmlns="http://www.w3.org/2000/svg">
<path d="M4.99932 15.5C4.85746 15.5 4.73877 15.4521 4.64327 15.3562C4.54776 15.2604 4.5 15.1417 4.5 15V5C4.5 4.85833 4.54798 4.73958 4.64395 4.64375C4.7399 4.54792 4.85881 4.5 5.00068 4.5C5.14254 4.5 5.26123 4.54792 5.35673 4.64375C5.45224 4.73958 5.5 4.85833 5.5 5V15C5.5 15.1417 5.45202 15.2604 5.35605 15.3562C5.2601 15.4521 5.14119 15.5 4.99932 15.5ZM8.99932 19.5C8.85746 19.5 8.73878 19.4521 8.64328 19.3563C8.54776 19.2604 8.5 19.1417 8.5 19V1C8.5 0.858333 8.54798 0.739583 8.64395 0.64375C8.7399 0.547917 8.85881 0.5 9.00068 0.5C9.14254 0.5 9.26123 0.547917 9.35673 0.64375C9.45224 0.739583 9.5 0.858333 9.5 1V19C9.5 19.1417 9.45202 19.2604 9.35605 19.3563C9.2601 19.4521 9.14119 19.5 8.99932 19.5ZM0.999325 11.5C0.857459 11.5 0.738775 11.4521 0.643275 11.3562C0.547758 11.2604 0.5 11.1417 0.5 11V9C0.5 8.85833 0.547983 8.73958 0.64395 8.64375C0.7399 8.54792 0.858808 8.5 1.00067 8.5C1.14254 8.5 1.26122 8.54792 1.35672 8.64375C1.45224 8.73958 1.5 8.85833 1.5 9V11C1.5 11.1417 1.45202 11.2604 1.35605 11.3562C1.2601 11.4521 1.14119 11.5 0.999325 11.5ZM12.9993 15.5C12.8575 15.5 12.7388 15.4521 12.6433 15.3562C12.5478 15.2604 12.5 15.1417 12.5 15V5C12.5 4.85833 12.548 4.73958 12.644 4.64375C12.7399 4.54792 12.8588 4.5 13.0007 4.5C13.1425 4.5 13.2612 4.54792 13.3567 4.64375C13.4522 4.73958 13.5 4.85833 13.5 5V15C13.5 15.1417 13.452 15.2604 13.3561 15.3562C13.2601 15.4521 13.1412 15.5 12.9993 15.5ZM16.9993 11.5C16.8575 11.5 16.7388 11.4521 16.6433 11.3562C16.5478 11.2604 16.5 11.1417 16.5 11V9C16.5 8.85833 16.548 8.73958 16.6439 8.64375C16.7399 8.54792 16.8588 8.5 17.0007 8.5C17.1425 8.5 17.2612 8.54792 17.3567 8.64375C17.4522 8.73958 17.5 8.85833 17.5 9V11C17.5 11.1417 17.452 11.2604 17.3561 11.3562C17.2601 11.4521 17.1412 11.5 16.9993 11.5Z" fill="#254CE5"/>
</svg>
