<svg width="16" height="18" viewBox="0 0 16 18" fill="none" xmlns="http://www.w3.org/2000/svg">
<path d="M1.41554 4.46191C1.24247 4.2427 1.11074 4.00488 1.02034 3.74846C0.929957 3.49205 0.884766 3.22986 0.884766 2.96191C0.884766 2.26748 1.12761 1.67721 1.61329 1.19109C2.09896 0.704972 2.6887 0.461914 3.38252 0.461914C4.07633 0.461914 4.66683 0.704972 5.15402 1.19109C5.6412 1.67721 5.88479 2.26748 5.88479 2.96191C5.88479 3.22986 5.8396 3.49205 5.74922 3.74846C5.65882 4.00488 5.52708 4.2427 5.35402 4.46191H1.41554ZM6.19452 17.5389C5.28547 17.5389 4.50658 17.215 3.85787 16.5672C3.20913 15.9195 2.88477 15.1408 2.88477 14.2312H2.48862C2.38093 14.2312 2.29007 14.1966 2.21602 14.1275C2.14198 14.0584 2.09823 13.9686 2.08477 13.8581L1.31169 6.42731C1.27836 6.185 1.34407 5.97634 1.50882 5.80134C1.67355 5.62634 1.87707 5.53884 2.11939 5.53884H4.65017C4.89248 5.53884 5.09601 5.62634 5.26074 5.80134C5.42549 5.97634 5.4912 6.185 5.45787 6.42731L4.68479 13.8581C4.67132 13.9686 4.62757 14.0584 4.55354 14.1275C4.47949 14.1966 4.38862 14.2312 4.28094 14.2312H3.88479C3.88479 14.8709 4.11075 15.4155 4.56267 15.8648C5.01458 16.3142 5.55785 16.5389 6.19247 16.5389C6.82708 16.5389 7.37036 16.3129 7.82229 15.861C8.27421 15.409 8.50017 14.8658 8.50017 14.2312V3.76961C8.50017 2.86 8.82384 2.08131 9.47119 1.43356C10.1186 0.785797 10.8968 0.461914 11.8058 0.461914C12.7149 0.461914 13.4938 0.785797 14.1425 1.43356C14.7912 2.08131 15.1156 2.86 15.1156 3.76961V17.0389C15.1156 17.1805 15.0676 17.2993 14.9716 17.3951C14.8756 17.4909 14.7567 17.5389 14.6149 17.5389C14.473 17.5389 14.3543 17.4909 14.2588 17.3951C14.1633 17.2993 14.1155 17.1805 14.1155 17.0389V3.76961C14.1155 3.135 13.8896 2.59173 13.4377 2.13981C12.9857 1.68788 12.4425 1.46191 11.8079 1.46191C11.1732 1.46191 10.63 1.68788 10.178 2.13981C9.72612 2.59173 9.50017 3.135 9.50017 3.76961V14.2312C9.50017 15.1408 9.17649 15.9195 8.52914 16.5672C7.88177 17.215 7.10357 17.5389 6.19452 17.5389ZM3.01169 13.2312H3.75787L4.41554 6.53886H2.35402L3.01169 13.2312Z" fill="#254CE5"/>
</svg>
