<svg width="22" height="20" viewBox="0 0 22 20" fill="none" xmlns="http://www.w3.org/2000/svg">
<path d="M13.1677 2.84449L15.0383 4.88894H19.1783V17.1556H2.82276V4.88894H6.96277L8.83343 2.84449H13.1677ZM14.0672 0.800049H7.93388L6.06321 2.84449H2.82276C1.69832 2.84449 0.77832 3.76449 0.77832 4.88894V17.1556C0.77832 18.28 1.69832 19.2 2.82276 19.2H19.1783C20.3028 19.2 21.2228 18.28 21.2228 17.1556V4.88894C21.2228 3.76449 20.3028 2.84449 19.1783 2.84449H15.9379L14.0672 0.800049ZM11.0005 7.9556C12.6872 7.9556 14.0672 9.3356 14.0672 11.0223C14.0672 12.7089 12.6872 14.0889 11.0005 14.0889C9.31388 14.0889 7.93388 12.7089 7.93388 11.0223C7.93388 9.3356 9.31388 7.9556 11.0005 7.9556ZM11.0005 5.91116C8.17921 5.91116 5.88943 8.20094 5.88943 11.0223C5.88943 13.8436 8.17921 16.1334 11.0005 16.1334C13.8219 16.1334 16.1117 13.8436 16.1117 11.0223C16.1117 8.20094 13.8219 5.91116 11.0005 5.91116Z" fill="#2954FC"/>
</svg>
