<svg width="16" height="16" viewBox="0 0 16 16" fill="none" xmlns="http://www.w3.org/2000/svg">
<path d="M1.61538 16C1.17114 16 0.790858 15.8418 0.474525 15.5255C0.158175 15.2091 0 14.8289 0 14.3846V1.61537C0 1.17114 0.158175 0.790858 0.474525 0.474525C0.790858 0.158175 1.17114 0 1.61538 0H14.3846C14.8289 0 15.2091 0.158175 15.5255 0.474525C15.8418 0.790858 16 1.17114 16 1.61537V14.3846C16 14.8289 15.8418 15.2091 15.5255 15.5255C15.2091 15.8418 14.8289 16 14.3846 16H1.61538ZM1.61538 15H14.3846C14.5641 15 14.7115 14.9423 14.8269 14.8269C14.9423 14.7115 15 14.5641 15 14.3846V3H1V14.3846C1 14.5641 1.05769 14.7115 1.17308 14.8269C1.28846 14.9423 1.43589 15 1.61538 15ZM3.5 7.5C3.35833 7.5 3.23958 7.45202 3.14375 7.35605C3.04792 7.26008 3 7.14118 3 6.99933C3 6.85746 3.04792 6.73878 3.14375 6.64328C3.23958 6.54776 3.35833 6.5 3.5 6.5H12.5C12.6417 6.5 12.7604 6.54798 12.8562 6.64395C12.9521 6.7399 13 6.85881 13 7.00067C13 7.14254 12.9521 7.26122 12.8562 7.35672C12.7604 7.45224 12.6417 7.5 12.5 7.5H3.5ZM3.5 11.5C3.35833 11.5 3.23958 11.452 3.14375 11.3561C3.04792 11.2601 3 11.1412 3 10.9993C3 10.8575 3.04792 10.7388 3.14375 10.6433C3.23958 10.5478 3.35833 10.5 3.5 10.5H8.5C8.64167 10.5 8.76042 10.548 8.85625 10.644C8.95208 10.7399 9 10.8588 9 11.0007C9 11.1425 8.95208 11.2612 8.85625 11.3567C8.76042 11.4522 8.64167 11.5 8.5 11.5H3.5Z" fill="#254CE5"/>
</svg>
