<svg width="18" height="20" viewBox="0 0 18 20" fill="none" xmlns="http://www.w3.org/2000/svg">
<path d="M14.7511 19.5C13.9875 19.5 13.3381 19.2326 12.8029 18.6979C12.2676 18.1632 12 17.5139 12 16.75C12 16.6251 12.0099 16.4959 12.0298 16.3621C12.0497 16.2284 12.0795 16.1051 12.1192 15.9923L4.72305 11.6615C4.45895 11.9243 4.15831 12.1298 3.82113 12.2779C3.48394 12.4259 3.12689 12.5 2.74997 12.5C1.98609 12.5 1.33679 12.2327 0.802075 11.6982C0.267358 11.1637 0 10.5147 0 9.7511C0 8.98753 0.267358 8.33813 0.802075 7.80288C1.33679 7.26763 1.98609 7 2.74997 7C3.12689 7 3.48394 7.07403 3.82113 7.2221C4.15831 7.37018 4.45895 7.57563 4.72305 7.83845L12.1192 3.50768C12.0795 3.39486 12.0497 3.27158 12.0298 3.13783C12.0099 3.00409 12 2.87481 12 2.74997C12 1.98609 12.2673 1.33679 12.8018 0.802075C13.3363 0.267358 13.9853 0 14.7489 0C15.5124 0 16.1618 0.26725 16.6971 0.80175C17.2323 1.33625 17.5 1.98528 17.5 2.74885C17.5 3.51242 17.2326 4.16183 16.6979 4.69708C16.1632 5.23233 15.5139 5.49995 14.75 5.49995C14.3731 5.49995 14.016 5.42592 13.6788 5.27785C13.3416 5.12977 13.041 4.92432 12.7769 4.6615L5.38073 8.99228C5.42048 9.10509 5.45028 9.22815 5.47015 9.36145C5.49002 9.49473 5.49995 9.62358 5.49995 9.74798C5.49995 9.87239 5.49002 10.0019 5.47015 10.1365C5.45028 10.2711 5.42048 10.3949 5.38073 10.5077L12.7769 14.8385C13.041 14.5756 13.3416 14.3702 13.6788 14.2221C14.016 14.074 14.3731 14 14.75 14C15.5139 14 16.1632 14.2673 16.6979 14.8018C17.2326 15.3363 17.5 15.9853 17.5 16.7489C17.5 17.5124 17.2327 18.1618 16.6982 18.6971C16.1637 19.2323 15.5147 19.5 14.7511 19.5ZM14.75 4C15.0974 4 15.3926 3.87853 15.6356 3.63558C15.8785 3.39261 16 3.09741 16 2.74997C16 2.40254 15.8785 2.10734 15.6356 1.86437C15.3926 1.62142 15.0974 1.49995 14.75 1.49995C14.4025 1.49995 14.1073 1.62142 13.8644 1.86437C13.6214 2.10734 13.5 2.40254 13.5 2.74997C13.5 3.09741 13.6214 3.39261 13.8644 3.63558C14.1073 3.87853 14.4025 4 14.75 4ZM2.74997 11C3.09741 11 3.39261 10.8785 3.63558 10.6356C3.87853 10.3926 4 10.0974 4 9.74998C4 9.40254 3.87853 9.10734 3.63558 8.86438C3.39261 8.62142 3.09741 8.49995 2.74997 8.49995C2.40254 8.49995 2.10734 8.62142 1.86438 8.86438C1.62143 9.10734 1.49995 9.40254 1.49995 9.74998C1.49995 10.0974 1.62143 10.3926 1.86438 10.6356C2.10734 10.8785 2.40254 11 2.74997 11ZM14.75 18C15.0974 18 15.3926 17.8785 15.6356 17.6356C15.8785 17.3926 16 17.0974 16 16.75C16 16.4025 15.8785 16.1073 15.6356 15.8644C15.3926 15.6214 15.0974 15.5 14.75 15.5C14.4025 15.5 14.1073 15.6214 13.8644 15.8644C13.6214 16.1073 13.5 16.4025 13.5 16.75C13.5 17.0974 13.6214 17.3926 13.8644 17.6356C14.1073 17.8785 14.4025 18 14.75 18Z" fill="#2954FC"/>
</svg>
