<svg width="25" height="24" viewBox="0 0 25 24" fill="none" xmlns="http://www.w3.org/2000/svg">
<path fill-rule="evenodd" clip-rule="evenodd" d="M20.8003 12C20.8003 16.4183 17.2186 20 12.8003 20C8.38202 20 4.80029 16.4183 4.80029 12C4.80029 7.58173 8.38202 4 12.8003 4C17.2186 4 20.8003 7.58173 20.8003 12ZM13.5669 9.54523C12.1926 10.1389 8.22976 11.8248 8.22976 11.8248C7.29061 12.2047 7.84033 12.5609 7.84033 12.5609C7.84033 12.5609 8.64205 12.8459 9.32926 13.0595C10.0164 13.2732 10.383 13.0358 10.383 13.0358C10.383 13.0358 11.9864 11.9435 13.6127 10.78C14.758 9.97265 14.4832 10.6375 14.2083 10.9225C13.6127 11.5399 12.6278 12.5134 11.8031 13.297C11.4366 13.6295 11.6199 13.9144 11.7802 14.0568C12.2466 14.4659 13.3449 15.2098 13.8436 15.5476C13.9818 15.6412 14.0739 15.7036 14.0938 15.719C14.2083 15.814 14.8497 16.2414 15.2391 16.1464C15.6285 16.0515 15.6743 15.5053 15.6743 15.5053C15.6743 15.5053 15.9721 13.5582 16.247 11.7773C16.2979 11.4276 16.3488 11.0853 16.3963 10.7661C16.5197 9.9364 16.6198 9.26291 16.6364 9.02283C16.7051 8.2155 15.8805 8.54791 15.8805 8.54791C15.8805 8.54791 14.0938 9.30779 13.5669 9.54523Z" fill="#1D1D1B"/>
</svg>
