<svg width="18" height="18" viewBox="0 0 18 18" fill="none" xmlns="http://www.w3.org/2000/svg">
<path d="M9.5 9.38653L12.2885 12.175C12.3821 12.2654 12.4289 12.3784 12.4289 12.5139C12.4289 12.6495 12.3821 12.766 12.2885 12.8635C12.191 12.9737 12.0721 13.0256 11.9317 13.0192C11.7913 13.0128 11.6724 12.9609 11.575 12.8635L9.06538 10.3539C8.87051 10.159 8.72756 9.94553 8.63653 9.71348C8.54551 9.48141 8.5 9.23718 8.5 8.98078V5.42308C8.5 5.28141 8.54798 5.16266 8.64395 5.06683C8.7399 4.97099 8.85881 4.92308 9.00068 4.92308C9.14254 4.92308 9.26123 4.97099 9.35673 5.06683C9.45224 5.16266 9.5 5.28141 9.5 5.42308V9.38653ZM9.00068 1C9.14254 1 9.26123 1.04792 9.35673 1.14375C9.45224 1.23958 9.5 1.35833 9.5 1.5V2.5C9.5 2.64167 9.45202 2.76042 9.35605 2.85625C9.2601 2.95208 9.14119 3 8.99932 3C8.85746 3 8.73878 2.95208 8.64328 2.85625C8.54776 2.76042 8.5 2.64167 8.5 2.5V1.5C8.5 1.35833 8.54798 1.23958 8.64395 1.14375C8.7399 1.04792 8.85881 1 9.00068 1ZM17 9.00067C17 9.14254 16.9521 9.26122 16.8563 9.35672C16.7604 9.45224 16.6417 9.5 16.5 9.5H15.5C15.3583 9.5 15.2396 9.45202 15.1438 9.35605C15.0479 9.26008 15 9.14118 15 8.99933C15 8.85746 15.0479 8.73878 15.1438 8.64328C15.2396 8.54776 15.3583 8.5 15.5 8.5H16.5C16.6417 8.5 16.7604 8.54798 16.8563 8.64395C16.9521 8.73992 17 8.85882 17 9.00067ZM9.00068 15C9.14254 15 9.26123 15.0479 9.35673 15.1438C9.45224 15.2396 9.5 15.3583 9.5 15.5V16.5C9.5 16.6417 9.45202 16.7604 9.35605 16.8563C9.2601 16.9521 9.14119 17 8.99932 17C8.85746 17 8.73878 16.9521 8.64328 16.8563C8.54776 16.7604 8.5 16.6417 8.5 16.5V15.5C8.5 15.3583 8.54798 15.2396 8.64395 15.1438C8.7399 15.0479 8.85881 15 9.00068 15ZM3 9.00067C3 9.14254 2.95208 9.26122 2.85625 9.35672C2.76042 9.45224 2.64167 9.5 2.5 9.5H1.5C1.35833 9.5 1.23958 9.45202 1.14375 9.35605C1.04792 9.26008 1 9.14118 1 8.99933C1 8.85746 1.04792 8.73878 1.14375 8.64328C1.23958 8.54776 1.35833 8.5 1.5 8.5H2.5C2.64167 8.5 2.76042 8.54798 2.85625 8.64395C2.95208 8.73992 3 8.85882 3 9.00067ZM9.00335 18C7.7588 18 6.58872 17.7638 5.4931 17.2915C4.39748 16.8192 3.44444 16.1782 2.63397 15.3685C1.82352 14.5588 1.18192 13.6066 0.70915 12.512C0.236383 11.4174 0 10.2479 0 9.00335C0 7.7588 0.236158 6.58872 0.708475 5.4931C1.18081 4.39748 1.82183 3.44444 2.63153 2.63398C3.44123 1.82353 4.39337 1.18192 5.48795 0.70915C6.58255 0.236383 7.75212 0 8.99665 0C10.2412 0 11.4113 0.236158 12.5069 0.708475C13.6025 1.18081 14.5556 1.82182 15.366 2.63152C16.1765 3.44122 16.8181 4.39337 17.2908 5.48795C17.7636 6.58255 18 7.75212 18 8.99665C18 10.2412 17.7638 11.4113 17.2915 12.5069C16.8192 13.6025 16.1782 14.5556 15.3685 15.366C14.5588 16.1765 13.6066 16.8181 12.512 17.2908C11.4174 17.7636 10.2479 18 9.00335 18ZM8.99932 17C11.2327 17 13.125 16.225 14.675 14.675C16.225 13.125 17 11.234 17 9.00067C17 6.76734 16.225 4.875 14.675 3.325C13.125 1.775 11.234 1 9.00068 1C6.76734 1 4.875 1.775 3.325 3.325C1.775 4.875 1 6.76599 1 8.99933C1 11.2327 1.775 13.125 3.325 14.675C4.875 16.225 6.76599 17 8.99932 17Z" fill="#B9B9B8"/>
</svg>
