<svg width="25" height="24" viewBox="0 0 25 24" fill="none" xmlns="http://www.w3.org/2000/svg">
<path d="M20.7291 6.58439C20.2116 6.80713 19.6675 6.96224 19.1102 7.04587C19.3708 7.00121 19.7541 6.53229 19.9067 6.34249C20.1385 6.05619 20.3151 5.72936 20.4277 5.3786C20.4277 5.35255 20.4537 5.31533 20.4277 5.29672C20.4146 5.28956 20.3998 5.2858 20.3849 5.2858C20.3699 5.2858 20.3552 5.28956 20.3421 5.29672C19.737 5.62438 19.0931 5.87446 18.4255 6.04104C18.4022 6.04815 18.3774 6.04879 18.3538 6.04289C18.3302 6.03699 18.3087 6.02477 18.2915 6.00755C18.2395 5.94567 18.1836 5.88724 18.124 5.83263C17.8517 5.58866 17.5428 5.38898 17.2085 5.2409C16.7573 5.05578 16.2699 4.97561 15.7831 5.00644C15.3108 5.03627 14.8497 5.16295 14.4285 5.3786C14.0137 5.60596 13.6491 5.91483 13.3567 6.28667C13.0491 6.66938 12.827 7.11352 12.7054 7.58922C12.6051 8.04171 12.5937 8.50938 12.6719 8.96621C12.6719 9.04436 12.6719 9.05553 12.6049 9.04436C9.95141 8.6536 7.77428 7.71203 5.99536 5.69121C5.91721 5.60189 5.87627 5.60189 5.813 5.69121C5.03891 6.86723 5.41479 8.72803 6.38241 9.64726C6.51266 9.77007 6.64664 9.88916 6.78806 10.0008C6.34441 9.96932 5.9116 9.84909 5.51528 9.64726C5.44084 9.59888 5.39991 9.62493 5.39618 9.71425C5.38563 9.83808 5.38563 9.96258 5.39618 10.0864C5.47384 10.6799 5.70771 11.242 6.07389 11.7154C6.44006 12.1888 6.9254 12.5565 7.48027 12.7808C7.61554 12.8388 7.75648 12.8824 7.90081 12.9111C7.49011 12.992 7.06888 13.0045 6.65408 12.9483C6.56476 12.9297 6.53127 12.9781 6.56476 13.0637C7.11184 14.5523 8.29902 15.0064 9.16988 15.2594C9.28897 15.278 9.40806 15.278 9.54204 15.3078C9.54204 15.3078 9.54204 15.3078 9.51971 15.3301C9.26292 15.799 8.22459 16.1154 7.74823 16.2791C6.87874 16.5914 5.95171 16.7108 5.03147 16.629C4.88633 16.6066 4.85283 16.6104 4.81562 16.629C4.7784 16.6476 4.81562 16.6885 4.85655 16.7257C5.04263 16.8485 5.22871 16.9565 5.42224 17.0607C5.99835 17.3749 6.60743 17.6245 7.23837 17.805C10.5059 18.7056 14.1829 18.0432 16.6354 15.6055C18.5632 13.6926 19.2405 11.054 19.2405 8.41169C19.2405 8.31121 19.3633 8.25167 19.434 8.19956C19.9217 7.81955 20.3517 7.37076 20.7105 6.86723C20.7727 6.79218 20.8045 6.69661 20.7998 6.59928C20.7998 6.54346 20.7998 6.55462 20.7291 6.58439Z" fill="#1D1D1B"/>
</svg>
