<svg width="19" height="15" viewBox="0 0 19 15" fill="none" xmlns="http://www.w3.org/2000/svg">
<path d="M9.22668 9.79755L12.5113 7.70525C12.7639 7.54755 12.8902 7.3219 12.8902 7.02832C12.8902 6.73474 12.7639 6.50909 12.5113 6.35139L9.22668 4.2591C8.95744 4.08088 8.68308 4.06741 8.4036 4.2187C8.12412 4.36998 7.98438 4.60716 7.98438 4.93025V9.1264C7.98438 9.44948 8.12412 9.68666 8.4036 9.83795C8.68308 9.98923 8.95744 9.97576 9.22668 9.79755ZM2.59975 14.0283C2.1395 14.0283 1.75521 13.8742 1.44688 13.5658C1.13854 13.2575 0.984375 12.8732 0.984375 12.4129V1.6437C0.984375 1.18345 1.13854 0.799154 1.44688 0.49082C1.75521 0.182487 2.1395 0.0283203 2.59975 0.0283203H17.369C17.8293 0.0283203 18.2135 0.182487 18.5219 0.49082C18.8302 0.799154 18.9844 1.18345 18.9844 1.6437V12.4129C18.9844 12.8732 18.8302 13.2575 18.5219 13.5658C18.2135 13.8742 17.8293 14.0283 17.369 14.0283H2.59975ZM2.59975 13.0283H17.369C17.5485 13.0283 17.6959 12.9706 17.8113 12.8552C17.9267 12.7399 17.9844 12.5924 17.9844 12.4129V1.6437C17.9844 1.46421 17.9267 1.31678 17.8113 1.2014C17.6959 1.08601 17.5485 1.02832 17.369 1.02832H2.59975C2.42027 1.02832 2.27283 1.08601 2.15745 1.2014C2.04207 1.31678 1.98438 1.46421 1.98438 1.6437V12.4129C1.98438 12.5924 2.04207 12.7399 2.15745 12.8552C2.27283 12.9706 2.42027 13.0283 2.59975 13.0283Z" fill="#254CE5"/>
</svg>
