<svg width="25" height="24" viewBox="0 0 25 24" fill="none" xmlns="http://www.w3.org/2000/svg">
<path d="M4.40039 20L5.54928 15.7354C4.62273 14.0741 4.32836 12.1355 4.72018 10.2754C5.112 8.41525 6.16373 6.75832 7.68238 5.60865C9.20103 4.45899 11.0847 3.8937 12.9878 4.01652C14.8909 4.13933 16.6857 4.94202 18.0429 6.27729C19.4001 7.61256 20.2287 9.39083 20.3765 11.2858C20.5244 13.1808 19.9816 15.0653 18.8478 16.5936C17.714 18.1219 16.0653 19.1915 14.2041 19.6061C12.343 20.0206 10.3942 19.7523 8.71552 18.8504L4.40039 20ZM8.92358 17.2546L9.19045 17.4124C10.4064 18.1307 11.8266 18.4279 13.2297 18.2578C14.6328 18.0877 15.9401 17.4597 16.9477 16.4718C17.9554 15.4839 18.6068 14.1915 18.8006 12.7961C18.9943 11.4006 18.7195 9.98052 18.0188 8.75702C17.3182 7.53352 16.2312 6.57537 14.9271 6.03189C13.6231 5.48841 12.1753 5.39013 10.8093 5.75236C9.44337 6.11458 8.23602 6.91697 7.3754 8.03449C6.51479 9.152 6.04926 10.5219 6.05136 11.9306C6.05021 13.0987 6.37434 14.2441 6.98766 15.2395L7.15501 15.5145L6.51272 17.8947L8.92358 17.2546Z" fill="#1D1D1B"/>
<path fill-rule="evenodd" clip-rule="evenodd" d="M15.4007 13.0256C15.2442 12.8999 15.061 12.8114 14.8651 12.7668C14.6691 12.7223 14.4655 12.7229 14.2699 12.7687C13.9759 12.8904 13.7859 13.3502 13.5959 13.5801C13.5559 13.6352 13.497 13.6739 13.4304 13.6888C13.3637 13.7038 13.2939 13.694 13.2341 13.6613C12.1577 13.2411 11.2555 12.4706 10.6739 11.4749C10.6243 11.4127 10.6009 11.3338 10.6084 11.2548C10.616 11.1758 10.6541 11.1027 10.7146 11.0511C10.9265 10.8421 11.0821 10.5831 11.167 10.2983C11.1858 9.98407 11.1136 9.67109 10.9589 9.39667C10.8393 9.01193 10.6117 8.66935 10.303 8.4094C10.1438 8.33804 9.96728 8.31411 9.79472 8.3405C9.62216 8.3669 9.46095 8.4425 9.33054 8.55817C9.10414 8.75285 8.92444 8.99566 8.80467 9.26872C8.6849 9.54179 8.62812 9.83815 8.63849 10.136C8.63919 10.3032 8.66046 10.4698 8.70182 10.6319C8.80685 11.0213 8.96837 11.3934 9.18128 11.7363C9.33488 11.999 9.50248 12.2534 9.68335 12.4982C10.2712 13.3024 11.0101 13.9853 11.859 14.5088C12.285 14.7748 12.7403 14.9911 13.216 15.1534C13.71 15.3767 14.2556 15.4623 14.7946 15.4014C15.1017 15.3551 15.3926 15.2342 15.6419 15.0495C15.8911 14.8647 16.091 14.6218 16.2239 14.342C16.302 14.173 16.3257 13.984 16.2917 13.801C16.2103 13.4269 15.7082 13.206 15.4007 13.0256Z" fill="#1D1D1B"/>
</svg>
